<svg xmlns="http://www.w3.org/2000/svg" viewBox="0 0 256 256" role="img" aria-label="BaseDare cafe hologram">
  <defs>
    <linearGradient id="gold" x1="0%" y1="0%" x2="100%" y2="100%">
      <stop offset="0" stop-color="#fff0a8"/>
      <stop offset="0.34" stop-color="#f5c518"/>
      <stop offset="0.72" stop-color="#b86b08"/>
      <stop offset="1" stop-color="#5d2d05"/>
    </linearGradient>
    <linearGradient id="goldShade" x1="0%" y1="0%" x2="0%" y2="100%">
      <stop offset="0" stop-color="#d99814"/>
      <stop offset="1" stop-color="#472105"/>
    </linearGradient>
    <linearGradient id="obsidian" x1="0%" y1="0%" x2="100%" y2="100%">
      <stop offset="0" stop-color="#30384e"/>
      <stop offset="0.55" stop-color="#111522"/>
      <stop offset="1" stop-color="#05070d"/>
    </linearGradient>
    <linearGradient id="cyan" x1="0%" y1="0%" x2="100%" y2="0%">
      <stop offset="0" stop-color="#0b6474"/>
      <stop offset="0.5" stop-color="#47e7f6"/>
      <stop offset="1" stop-color="#0b6474"/>
    </linearGradient>
  </defs>
  <ellipse cx="128" cy="225" rx="68" ry="12" fill="#35d8ea" opacity="0.16"/>
  <ellipse cx="128" cy="222" rx="55" ry="8" fill="none" stroke="url(#cyan)" stroke-width="4"/>
  <path d="M75 198 93 182h70l18 16-13 20H88Z" fill="url(#obsidian)" stroke="#080a11" stroke-width="5"/>
  <path d="m91 192 9-8h56l10 8-9 8h-58Z" fill="#1b2533" stroke="#35d8ea" stroke-width="3"/>
  <path d="M82 80h95l-8 76c-2 20-17 31-42 31s-40-11-42-31Z" fill="url(#gold)" stroke="#2b1604" stroke-width="7"/>
  <path d="M151 88h23l-6 67c-2 16-13 27-29 30 12-10 17-24 17-43Z" fill="url(#goldShade)" opacity="0.72"/>
  <path d="M174 100c31-3 43 9 42 31-1 25-18 40-44 37l3-17c15 2 23-6 24-19 0-12-7-17-26-15Z" fill="url(#gold)" stroke="#2b1604" stroke-width="7"/>
  <ellipse cx="129" cy="81" rx="51" ry="18" fill="#2a1508" stroke="#ffdc5d" stroke-width="7"/>
  <ellipse cx="129" cy="82" rx="38" ry="10" fill="#130b08"/>
  <path d="M98 108c9 8 52 8 63 0" fill="none" stroke="#fff0a8" stroke-width="5" stroke-linecap="round" opacity="0.7"/>
  <path d="M106 127c7-9 15-13 23-13 12 0 23 8 28 20-4 19-15 29-30 29-15 0-25-9-29-28 2-3 5-6 8-8Z" fill="#171016" stroke="#4a2b11" stroke-width="4"/>
  <path d="m109 128 12 12m0-12-12 12" stroke="#f5c518" stroke-width="6" stroke-linecap="round"/>
  <path d="M139 127c6 3 9 7 10 12" fill="none" stroke="#47e7f6" stroke-width="5" stroke-linecap="round"/>
  <path d="M109 62c-13-13 7-19-2-35M134 61c13-15-6-20 4-37M158 62c-8-11 7-17 3-30" fill="none" stroke="#47e7f6" stroke-width="5" stroke-linecap="round" opacity="0.9"/>
</svg>
